<?xml version="1.0" standalone="no"?>
<!DOCTYPE svg PUBLIC "-//W3C//DTD SVG 20010904//EN"
 "http://www.w3.org/TR/2001/REC-SVG-20010904/DTD/svg10.dtd">
<svg version="1.0" xmlns="http://www.w3.org/2000/svg"
 width="2000.000000pt" height="2000.000000pt" viewBox="0 0 2000.000000 2000.000000"
 preserveAspectRatio="xMidYMid meet">
<metadata>
Created by potrace 1.14, written by Peter Selinger 2001-2017
</metadata>
<g transform="translate(0.000000,2000.000000) scale(0.100000,-0.100000)"
fill="#000000" stroke="none">
<path d="M9890 14749 c-58 -93 -139 -224 -180 -290 -41 -65 -117 -188 -169
-272 -52 -83 -114 -181 -136 -217 -44 -69 -231 -367 -327 -522 -32 -51 -71
-113 -86 -138 -16 -25 -116 -184 -222 -355 -106 -170 -207 -332 -225 -360 -18
-27 -56 -88 -85 -135 -29 -47 -67 -107 -84 -135 -27 -41 -441 -703 -711 -1137
-39 -62 -82 -131 -96 -153 -69 -110 -1097 -1756 -1228 -1968 -52 -83 -114
-181 -136 -217 -44 -69 -231 -367 -327 -522 -32 -51 -71 -113 -87 -138 -15
-25 -115 -184 -221 -355 -106 -170 -207 -332 -225 -360 -18 -27 -56 -88 -85
-135 -28 -47 -62 -101 -75 -120 -12 -19 -114 -181 -225 -360 -111 -179 -218
-350 -237 -380 -119 -188 -289 -461 -426 -681 -87 -140 -223 -357 -302 -484
-79 -126 -142 -232 -139 -234 2 -2 2769 -5 6149 -5 4474 -1 6144 2 6141 10 -2
6 -25 43 -50 83 -25 39 -46 73 -46 75 0 3 -27 45 -60 95 -33 50 -60 93 -60 96
0 2 -30 52 -67 110 -38 58 -85 133 -107 168 -21 34 -66 107 -101 162 -96 153
-108 171 -187 300 -77 124 -435 697 -542 867 -34 53 -110 176 -171 273 -60 97
-133 213 -162 258 -64 102 -137 219 -142 231 -2 4 -25 41 -52 82 -27 40 -49
76 -49 79 0 3 -5 11 -11 18 -6 7 -53 82 -106 167 -53 85 -115 185 -139 222
-24 37 -44 69 -44 72 0 3 -17 31 -39 63 -21 32 -74 117 -118 188 -44 72 -140
225 -213 340 -73 116 -140 222 -149 237 -20 34 -272 436 -329 526 -23 37 -45
74 -49 82 -4 8 -9 17 -13 20 -3 3 -25 37 -48 75 -23 39 -67 108 -96 155 -53
83 -130 207 -151 242 -5 10 -73 118 -150 240 -77 122 -142 227 -144 233 -2 5
-7 12 -11 15 -5 4 -64 98 -95 152 -11 20 -291 467 -340 543 -17 28 -96 154
-175 280 -79 127 -170 274 -204 327 -34 53 -110 176 -171 273 -60 97 -133 213
-162 258 -64 102 -137 219 -142 231 -2 4 -25 41 -52 82 -27 40 -49 78 -49 83
0 5 -4 11 -8 13 -4 2 -41 57 -82 123 -40 66 -90 146 -109 177 -165 263 -196
314 -200 322 -2 6 -8 15 -13 21 -5 5 -54 82 -108 170 -55 88 -108 174 -118
190 -47 72 -178 281 -187 297 -39 69 -324 518 -328 518 -1 -1 -49 -77 -107
-171z"/>
</g>
</svg>
